# xmcd CD database file
#
# Track frame offsets:
#	150
#	27943
#	48688
#	70465
#	93533
#	109220
#	124073
#	146393
#	165725
#
# Disc length: 2395 seconds
#
# Revision: 0
# Processed by: cddbd v1.4PL0 Copyright (c) Steve Scherf et al.
# Submitted via: CDex 1.50Beta7
#
DISCID=81095909
DTITLE=Victor Feldmann - The Artful Dodger
DYEAR=1900
DGENRE=Jazz
TTITLE0=Limehouse Blues
TTITLE1=Agitation
TTITLE2=A Walk On The Heath
TTITLE3=Haunted Ballroom
TTITLE4=Isn't She Lovely
TTITLE5=The Artful Dodger
TTITLE6=Smoke Gets In Your Eyes
TTITLE7=St. Thomas
TTITLE8=Haunted Ballroom
EXTD=
EXTT0=
EXTT1=
EXTT2=
EXTT3=
EXTT4=
EXTT5=
EXTT6=
EXTT7=
EXTT8=
PLAYORDER=
